<svg width="19" height="18" viewBox="0 0 19 18" fill="none" xmlns="http://www.w3.org/2000/svg">
<path d="M18.6265 3.14545L18.6261 3.14505C18.5392 3.05735 18.4357 2.98779 18.3217 2.94044C18.2077 2.89309 18.0854 2.86888 17.9619 2.86923L17.9616 2.86923L17.2273 2.86923H17.1273V2.76923V1.03857C17.1271 0.789732 17.0281 0.551163 16.8522 0.375208C16.6762 0.199264 16.4377 0.100293 16.1889 0.1H3.05572C2.27182 0.100011 1.52003 0.411445 0.965726 0.965795C0.411422 1.52015 0.100011 2.272 0.1 3.05598V14.944C0.100011 15.728 0.411422 16.4799 0.965726 17.0342C1.52003 17.5886 2.27182 17.9 3.05572 17.9H17.9206C18.1688 17.8995 18.4068 17.8009 18.5826 17.6256C18.7584 17.4504 18.8578 17.2128 18.8591 16.9646C18.8591 16.9645 18.8591 16.9644 18.8591 16.9644M18.6265 3.14545L18.9591 16.9649L18.8591 16.9644M18.6265 3.14545C18.7139 3.23266 18.7831 3.33638 18.83 3.45057C18.877 3.56476 18.9008 3.68715 18.9 3.81061L18.9 3.81093L18.8591 16.9644M18.6265 3.14545L18.8591 16.9644M17.5758 16.7154H17.6755L17.6758 16.6157L17.7144 4.15416L17.7148 4.05385H17.6144H3.21512V2.86923H15.8428H15.9428V2.76923V1.38462V1.28462H15.8428H3.05572C2.58596 1.28462 2.13544 1.47124 1.80328 1.80344C1.47111 2.13563 1.2845 2.58618 1.2845 3.05598V14.944C1.2845 15.4138 1.47111 15.8644 1.80328 16.1966C2.13544 16.5288 2.58596 16.7154 3.05572 16.7154H17.5758ZM14.5583 9.44615H15.7428V10.6308H14.5583V9.44615Z" fill="#B4B4B4" stroke="#B4B4B4" stroke-width="0.2"/>
</svg>
