<svg width="17" height="26" viewBox="0 0 17 26" fill="none" xmlns="http://www.w3.org/2000/svg">
<path d="M0.5 12.7496C0.223858 12.7496 0 12.9735 0 13.2496C0 13.5258 0.223858 13.7496 0.5 13.7496V12.7496ZM16.5 13.7496C16.7761 13.7496 17 13.5258 17 13.2496C17 12.9735 16.7761 12.7496 16.5 12.7496V13.7496ZM9 1.24976C9 0.973614 8.77614 0.749756 8.5 0.749756C8.22386 0.749756 8 0.973613 8 1.24976L9 1.24976ZM8.14645 9.10331C8.34171 9.29857 8.65829 9.29857 8.85355 9.10331L12.0355 5.92133C12.2308 5.72607 12.2308 5.40948 12.0355 5.21422C11.8403 5.01896 11.5237 5.01896 11.3284 5.21422L8.5 8.04265L5.67157 5.21422C5.47631 5.01896 5.15973 5.01896 4.96447 5.21422C4.7692 5.40948 4.7692 5.72607 4.96447 5.92133L8.14645 9.10331ZM8 24.7496C8 25.0258 8.22386 25.2496 8.5 25.2496C8.77614 25.2496 9 25.0258 9 24.7496H8ZM8.85355 16.8961C8.65829 16.7008 8.34171 16.7008 8.14645 16.8961L4.96447 20.078C4.7692 20.2733 4.7692 20.5899 4.96447 20.7851C5.15973 20.9804 5.47631 20.9804 5.67157 20.7851L8.5 17.9567L11.3284 20.7851C11.5237 20.9804 11.8403 20.9804 12.0355 20.7851C12.2308 20.5899 12.2308 20.2733 12.0355 20.078L8.85355 16.8961ZM0.5 13.7496H16.5V12.7496H0.5V13.7496ZM8 1.24976L8 8.74976H9L9 1.24976L8 1.24976ZM9 24.7496L9 17.2496H8L8 24.7496H9Z" fill="#414141"/>
</svg>
