<svg width="22" height="22" viewBox="0 0 22 22" fill="none" xmlns="http://www.w3.org/2000/svg">
<path d="M20.1799 0.200222H1.81995C0.955953 0.200222 0.199953 0.851438 0.199953 1.71978V20.2806C0.199953 21.149 0.955953 21.8002 1.81995 21.8002H20.1799C21.0439 21.8002 21.7999 21.149 21.7999 20.2806V1.71978C21.7999 0.959981 21.0439 0.200222 20.1799 0.200222ZM6.57195 18.761H3.33195V8.44944H6.57195V18.761ZM4.95195 6.92982C3.87195 6.92982 3.11595 6.06153 3.11595 5.08464C3.11595 4.10776 3.97995 3.2394 4.95195 3.2394C5.92395 3.2394 6.78795 4.10776 6.78795 5.08464C6.89595 6.17007 6.03195 6.92982 4.95195 6.92982ZM18.5599 18.761H15.3199V13.7681C15.3199 12.5741 15.3199 11.0545 13.6999 11.0545C12.0799 11.0545 11.756 12.357 11.756 13.7681V18.8695H8.51596V8.55796H11.5399V9.96907C11.9719 9.10072 13.0519 8.34092 14.5639 8.34092C17.8039 8.34092 18.452 10.5118 18.452 13.2253V18.761H18.5599Z" fill="#0077B5"/>
</svg>
