<svg width="20" height="20" viewBox="0 0 20 20" fill="none" xmlns="http://www.w3.org/2000/svg">
<path d="M17.2 10V19H2.8V10M10 19V5.5M10 5.5H5.95C5.35326 5.5 4.78097 5.26295 4.35901 4.84099C3.93705 4.41903 3.7 3.84674 3.7 3.25C3.7 2.65326 3.93705 2.08097 4.35901 1.65901C4.78097 1.23705 5.35326 1 5.95 1C9.1 1 10 5.5 10 5.5ZM10 5.5H14.05C14.6467 5.5 15.219 5.26295 15.641 4.84099C16.0629 4.41903 16.3 3.84674 16.3 3.25C16.3 2.65326 16.0629 2.08097 15.641 1.65901C15.219 1.23705 14.6467 1 14.05 1C10.9 1 10 5.5 10 5.5ZM1 5.5H19V10H1V5.5Z" stroke="#B4B4B4" stroke-linecap="round" stroke-linejoin="round"/>
</svg>
