<svg width="14" height="18" viewBox="0 0 14 18" fill="none" xmlns="http://www.w3.org/2000/svg">
<path d="M1.63217 16.5913L1.60876 16.5472L1.63217 16.5913L3.53028 15.5854C3.53028 15.5854 3.53029 15.5854 3.53029 15.5854C3.96287 15.3564 4.47798 15.3902 4.88066 15.6748L4.88067 15.6748L6.71238 16.9687C6.8864 17.0917 7.11358 17.0917 7.28762 16.9687L9.11933 15.6748L9.09048 15.634L9.11933 15.6748C9.52218 15.3902 10.0372 15.3564 10.4697 15.5854L12.3678 16.5913L12.3912 16.5472L12.3678 16.5913C12.7157 16.7757 13.1167 16.5052 13.1167 16.1047V1.48364C13.1167 1.18575 12.888 0.93904 12.6 0.93904H1.4C1.11204 0.93904 0.88328 1.18575 0.88328 1.48364V16.1047C0.88328 16.5052 1.28425 16.7756 1.63217 16.5913ZM10.0992 16.3817L10.0992 16.3817C9.93257 16.2935 9.73396 16.3067 9.57933 16.4159L9.57931 16.4159L7.74775 17.7099L7.7766 17.7508L7.74775 17.7099C7.29472 18.03 6.70536 18.03 6.25233 17.7099L6.22348 17.7508L6.25233 17.7099L4.42077 16.4159L4.42075 16.4159C4.26611 16.3067 4.0675 16.2935 3.90089 16.3817L3.90087 16.3817L2.00275 17.3875C1.10955 17.8609 0.05008 17.175 0.05008 16.1047L0.05 1.48364C0.05 0.689175 0.657188 0.05 1.4 0.05H12.6C13.3428 0.05 13.95 0.689175 13.95 1.48364V16.1047C13.95 17.175 12.8905 17.8608 11.9973 17.3875L10.0992 16.3817ZM10.6832 5.75277H6.22639V4.86356H10.6832V5.75277ZM4.15 5.75277H3.31672V4.86356H4.15V5.75277ZM4.15 8.98368H3.31672V8.09464H4.15V8.98368ZM4.15 12.215H3.31672V11.326H4.15V12.215ZM10.6832 8.98368H6.22639V8.09464H10.6832V8.98368ZM10.6832 12.215H6.22639V11.326H10.6832V12.215Z" fill="#B4B4B4" stroke="#141519" stroke-width="0.1"/>
</svg>
