<svg width="124" height="117" viewBox="0 0 124 117" fill="none" xmlns="http://www.w3.org/2000/svg">
<path d="M70 64V62C70 60.9391 69.5786 59.9217 68.8284 59.1716C68.0783 58.4214 67.0609 58 66 58H58C56.9391 58 55.9217 58.4214 55.1716 59.1716C54.4214 59.9217 54 60.9391 54 62V64" stroke="white" stroke-width="2" stroke-linecap="round" stroke-linejoin="round"/>
<path d="M62 54C64.2091 54 66 52.2091 66 50C66 47.7909 64.2091 46 62 46C59.7909 46 58 47.7909 58 50C58 52.2091 59.7909 54 62 54Z" stroke="white" stroke-width="2" stroke-linecap="round" stroke-linejoin="round"/>
<path d="M79.4268 45L91.4268 39" stroke="white" stroke-linecap="round"/>
<path d="M44.1001 45L32.1001 39" stroke="white" stroke-linecap="round"/>
<path d="M78.9999 71.3006L91.5269 76.1041" stroke="white" stroke-linecap="round"/>
<path d="M62.3439 87.4159L62.4562 73.9999" stroke="white" stroke-linecap="round"/>
<path d="M62.3439 36.4159L62.4562 22.9999" stroke="white" stroke-linecap="round"/>
<path d="M44.5269 71.3006L31.9999 76.1041" stroke="white" stroke-linecap="round"/>
<path d="M19 39V37C19 35.9391 18.5786 34.9217 17.8284 34.1716C17.0783 33.4214 16.0609 33 15 33H7C5.93913 33 4.92172 33.4214 4.17157 34.1716C3.42143 34.9217 3 35.9391 3 37V39" stroke="white" stroke-width="2" stroke-linecap="round" stroke-linejoin="round"/>
<path d="M11 29C13.2091 29 15 27.2091 15 25C15 22.7909 13.2091 21 11 21C8.79086 21 7 22.7909 7 25C7 27.2091 8.79086 29 11 29Z" stroke="white" stroke-width="2" stroke-linecap="round" stroke-linejoin="round"/>
<path d="M25 39V37C24.9993 36.1137 24.7044 35.2528 24.1614 34.5523C23.6184 33.8519 22.8581 33.3516 22 33.13" stroke="white" stroke-width="2" stroke-linecap="round" stroke-linejoin="round"/>
<path d="M18 21.13C18.8604 21.3503 19.623 21.8507 20.1676 22.5523C20.7122 23.2539 21.0078 24.1168 21.0078 25.005C21.0078 25.8932 20.7122 26.7561 20.1676 27.4577C19.623 28.1593 18.8604 28.6597 18 28.88" stroke="white" stroke-width="2" stroke-linecap="round" stroke-linejoin="round"/>
<path d="M17 99V97C17 95.9391 16.5786 94.9217 15.8284 94.1716C15.0783 93.4214 14.0609 93 13 93H5C3.93913 93 2.92172 93.4214 2.17157 94.1716C1.42143 94.9217 1 95.9391 1 97V99" stroke="white" stroke-width="2" stroke-linecap="round" stroke-linejoin="round"/>
<path d="M9 89C11.2091 89 13 87.2091 13 85C13 82.7909 11.2091 81 9 81C6.79086 81 5 82.7909 5 85C5 87.2091 6.79086 89 9 89Z" stroke="white" stroke-width="2" stroke-linecap="round" stroke-linejoin="round"/>
<path d="M23 99V97C22.9993 96.1137 22.7044 95.2528 22.1614 94.5523C21.6184 93.8519 20.8581 93.3516 20 93.13" stroke="white" stroke-width="2" stroke-linecap="round" stroke-linejoin="round"/>
<path d="M16 81.13C16.8604 81.3503 17.623 81.8507 18.1676 82.5523C18.7122 83.2539 19.0078 84.1168 19.0078 85.005C19.0078 85.8932 18.7122 86.7561 18.1676 87.4577C17.623 88.1593 16.8604 88.6597 16 88.88" stroke="white" stroke-width="2" stroke-linecap="round" stroke-linejoin="round"/>
<path d="M67 21V19C67 17.9391 66.5786 16.9217 65.8284 16.1716C65.0783 15.4214 64.0609 15 63 15H55C53.9391 15 52.9217 15.4214 52.1716 16.1716C51.4214 16.9217 51 17.9391 51 19V21" stroke="white" stroke-width="2" stroke-linecap="round" stroke-linejoin="round"/>
<path d="M59 11C61.2091 11 63 9.20914 63 7C63 4.79086 61.2091 3 59 3C56.7909 3 55 4.79086 55 7C55 9.20914 56.7909 11 59 11Z" stroke="white" stroke-width="2" stroke-linecap="round" stroke-linejoin="round"/>
<path d="M73 21V19C72.9993 18.1137 72.7044 17.2528 72.1614 16.5523C71.6184 15.8519 70.8581 15.3516 70 15.13" stroke="white" stroke-width="2" stroke-linecap="round" stroke-linejoin="round"/>
<path d="M66 3.13C66.8604 3.35031 67.623 3.85071 68.1676 4.55232C68.7122 5.25392 69.0078 6.11683 69.0078 7.005C69.0078 7.89318 68.7122 8.75608 68.1676 9.45769C67.623 10.1593 66.8604 10.6597 66 10.88" stroke="white" stroke-width="2" stroke-linecap="round" stroke-linejoin="round"/>
<path d="M67 114V112C67 110.939 66.5786 109.922 65.8284 109.172C65.0783 108.421 64.0609 108 63 108H55C53.9391 108 52.9217 108.421 52.1716 109.172C51.4214 109.922 51 110.939 51 112V114" stroke="white" stroke-width="2" stroke-linecap="round" stroke-linejoin="round"/>
<path d="M59 104C61.2091 104 63 102.209 63 100C63 97.7909 61.2091 96 59 96C56.7909 96 55 97.7909 55 100C55 102.209 56.7909 104 59 104Z" stroke="white" stroke-width="2" stroke-linecap="round" stroke-linejoin="round"/>
<path d="M73 114V112C72.9993 111.114 72.7044 110.253 72.1614 109.552C71.6184 108.852 70.8581 108.352 70 108.13" stroke="white" stroke-width="2" stroke-linecap="round" stroke-linejoin="round"/>
<path d="M66 96.13C66.8604 96.3503 67.623 96.8507 68.1676 97.5523C68.7122 98.2539 69.0078 99.1168 69.0078 100.005C69.0078 100.893 68.7122 101.756 68.1676 102.458C67.623 103.159 66.8604 103.66 66 103.88" stroke="white" stroke-width="2" stroke-linecap="round" stroke-linejoin="round"/>
<path d="M115 39V37C115 35.9391 114.579 34.9217 113.828 34.1716C113.078 33.4214 112.061 33 111 33H103C101.939 33 100.922 33.4214 100.172 34.1716C99.4214 34.9217 99 35.9391 99 37V39" stroke="white" stroke-width="2" stroke-linecap="round" stroke-linejoin="round"/>
<path d="M107 29C109.209 29 111 27.2091 111 25C111 22.7909 109.209 21 107 21C104.791 21 103 22.7909 103 25C103 27.2091 104.791 29 107 29Z" stroke="white" stroke-width="2" stroke-linecap="round" stroke-linejoin="round"/>
<path d="M121 39V37C120.999 36.1137 120.704 35.2528 120.161 34.5523C119.618 33.8519 118.858 33.3516 118 33.13" stroke="white" stroke-width="2" stroke-linecap="round" stroke-linejoin="round"/>
<path d="M114 21.13C114.86 21.3503 115.623 21.8507 116.168 22.5523C116.712 23.2539 117.008 24.1168 117.008 25.005C117.008 25.8932 116.712 26.7561 116.168 27.4577C115.623 28.1593 114.86 28.6597 114 28.88" stroke="white" stroke-width="2" stroke-linecap="round" stroke-linejoin="round"/>
<path d="M117 99V97C117 95.9391 116.579 94.9217 115.828 94.1716C115.078 93.4214 114.061 93 113 93H105C103.939 93 102.922 93.4214 102.172 94.1716C101.421 94.9217 101 95.9391 101 97V99" stroke="white" stroke-width="2" stroke-linecap="round" stroke-linejoin="round"/>
<path d="M109 89C111.209 89 113 87.2091 113 85C113 82.7909 111.209 81 109 81C106.791 81 105 82.7909 105 85C105 87.2091 106.791 89 109 89Z" stroke="white" stroke-width="2" stroke-linecap="round" stroke-linejoin="round"/>
<path d="M123 99V97C122.999 96.1137 122.704 95.2528 122.161 94.5523C121.618 93.8519 120.858 93.3516 120 93.13" stroke="white" stroke-width="2" stroke-linecap="round" stroke-linejoin="round"/>
<path d="M116 81.13C116.86 81.3503 117.623 81.8507 118.168 82.5523C118.712 83.2539 119.008 84.1168 119.008 85.005C119.008 85.8932 118.712 86.7561 118.168 87.4577C117.623 88.1593 116.86 88.6597 116 88.88" stroke="white" stroke-width="2" stroke-linecap="round" stroke-linejoin="round"/>
</svg>
