<svg width="680" height="569" viewBox="0 0 680 569" fill="none" xmlns="http://www.w3.org/2000/svg">
<path d="M445.982 170.146C445.787 170.342 445.787 170.658 445.982 170.854L449.164 174.036C449.36 174.231 449.676 174.231 449.871 174.036C450.067 173.84 450.067 173.524 449.871 173.328L447.043 170.5L449.871 167.672C450.067 167.476 450.067 167.16 449.871 166.964C449.676 166.769 449.36 166.769 449.164 166.964L445.982 170.146ZM521.336 247.51C521.587 234.598 518.145 215.238 506.985 199.091C495.805 182.916 476.902 170 446.336 170V171C476.569 171 495.167 183.751 506.162 199.659C517.176 215.595 520.584 234.735 520.336 247.49L521.336 247.51Z" fill="#5F5F5F"/>
<path d="M445.689 214.646C445.494 214.451 445.178 214.451 444.982 214.646C444.787 214.842 444.787 215.158 444.982 215.354L445.689 214.646ZM471.336 241.5C471.612 241.5 471.836 241.276 471.836 241V236.5C471.836 236.224 471.612 236 471.336 236C471.06 236 470.836 236.224 470.836 236.5V240.5H466.836C466.56 240.5 466.336 240.724 466.336 241C466.336 241.276 466.56 241.5 466.836 241.5H471.336ZM444.982 215.354L470.982 241.354L471.689 240.646L445.689 214.646L444.982 215.354Z" fill="#5F5F5F"/>
<path d="M567.689 336.646C567.494 336.451 567.178 336.451 566.982 336.646C566.787 336.842 566.787 337.158 566.982 337.354L567.689 336.646ZM593.336 363.5C593.612 363.5 593.836 363.276 593.836 363V358.5C593.836 358.224 593.612 358 593.336 358C593.06 358 592.836 358.224 592.836 358.5V362.5H588.836C588.56 362.5 588.336 362.724 588.336 363C588.336 363.276 588.56 363.5 588.836 363.5H593.336ZM566.982 337.354L592.982 363.354L593.689 362.646L567.689 336.646L566.982 337.354Z" fill="#5F5F5F"/>
<path d="M327.689 335.646C327.494 335.451 327.178 335.451 326.982 335.646C326.787 335.842 326.787 336.158 326.982 336.354L327.689 335.646ZM353.336 362.5C353.612 362.5 353.836 362.276 353.836 362V357.5C353.836 357.224 353.612 357 353.336 357C353.06 357 352.836 357.224 352.836 357.5V361.5H348.836C348.56 361.5 348.336 361.724 348.336 362C348.336 362.276 348.56 362.5 348.836 362.5H353.336ZM326.982 336.354L352.982 362.354L353.689 361.646L327.689 335.646L326.982 336.354Z" fill="#5F5F5F"/>
<path d="M210.689 454.646C210.494 454.451 210.178 454.451 209.982 454.646C209.787 454.842 209.787 455.158 209.982 455.354L210.689 454.646ZM236.336 481.5C236.612 481.5 236.836 481.276 236.836 481V476.5C236.836 476.224 236.612 476 236.336 476C236.06 476 235.836 476.224 235.836 476.5V480.5H231.836C231.56 480.5 231.336 480.724 231.336 481C231.336 481.276 231.56 481.5 231.836 481.5H236.336ZM209.982 455.354L235.982 481.354L236.689 480.646L210.689 454.646L209.982 455.354Z" fill="#5F5F5F"/>
<path d="M235.982 335.646C236.178 335.451 236.494 335.451 236.689 335.646C236.885 335.842 236.885 336.158 236.689 336.354L235.982 335.646ZM210.336 362.5C210.06 362.5 209.836 362.276 209.836 362V357.5C209.836 357.224 210.06 357 210.336 357C210.612 357 210.836 357.224 210.836 357.5V361.5H214.836C215.112 361.5 215.336 361.724 215.336 362C215.336 362.276 215.112 362.5 214.836 362.5H210.336ZM236.689 336.354L210.689 362.354L209.982 361.646L235.982 335.646L236.689 336.354Z" fill="#5F5F5F"/>
<path d="M352.982 214.646C353.178 214.451 353.494 214.451 353.689 214.646C353.885 214.842 353.885 215.158 353.689 215.354L352.982 214.646ZM327.336 241.5C327.06 241.5 326.836 241.276 326.836 241V236.5C326.836 236.224 327.06 236 327.336 236C327.612 236 327.836 236.224 327.836 236.5V240.5H331.836C332.112 240.5 332.336 240.724 332.336 241C332.336 241.276 332.112 241.5 331.836 241.5H327.336ZM353.689 215.354L327.689 241.354L326.982 240.646L352.982 214.646L353.689 215.354Z" fill="#5F5F5F"/>
<path d="M112.982 454.646C113.178 454.451 113.494 454.451 113.689 454.646C113.885 454.842 113.885 455.158 113.689 455.354L112.982 454.646ZM87.3358 481.5C87.0597 481.5 86.8358 481.276 86.8358 481V476.5C86.8358 476.224 87.0597 476 87.3358 476C87.612 476 87.8358 476.224 87.8358 476.5V480.5H91.8358C92.112 480.5 92.3358 480.724 92.3358 481C92.3358 481.276 92.112 481.5 91.8358 481.5H87.3358ZM113.689 455.354L87.6894 481.354L86.9823 480.646L112.982 454.646L113.689 455.354Z" fill="#5F5F5F"/>
<rect x="320.336" y="7" width="158" height="62" rx="4" fill="#1B1C21" stroke="#00FF38" stroke-width="2"/>
<path d="M387.536 40.408V34.552C387.536 32.824 388.4 31.96 390.128 31.96H394.832L395.776 32.696V33.72H390.192C389.722 33.72 389.488 33.9547 389.488 34.424V40.536C389.488 41.0053 389.722 41.24 390.192 41.24H394.144V38.152H391.808V36.392H396.096V43H390.128C388.4 43 387.536 42.136 387.536 40.408ZM398.493 43V31.96H400.445V36.808L404.781 31.96H406.589L406.781 32.36L403.069 36.504L407.181 42.6L406.989 43H405.197L401.805 37.912L400.445 39.4V43H398.493Z" fill="#1CFF40"/>
<path d="M383.141 176V164.96H390.565V166.72H385.093V169.392H390.085V171.152H385.093V174.24H390.565V176H383.141ZM392.559 176V167.6H402.127C403.802 167.6 404.639 168.443 404.639 170.128V176H402.783V169.968C402.783 169.467 402.533 169.216 402.031 169.216H399.535V176H397.663V169.216H394.431V176H392.559ZM406.949 166.176V164.288H408.885V166.176H406.949ZM406.981 176V167.6H408.853V176H406.981ZM411.167 173.216V164.16H413.039V173.408C413.039 174.091 413.391 174.464 414.095 174.528V176.144C412.143 176.144 411.167 175.168 411.167 173.216ZM415.203 168.256L416.243 164.16H417.971L418.163 164.448L416.579 168.608L415.203 168.256Z" fill="white"/>
<circle cx="400.336" cy="171" r="39" stroke="white" stroke-width="2"/>
<circle cx="280.336" cy="529" r="39" stroke="#ABABAB" stroke-width="2"/>
<path d="M511.684 295V286.6H516.292C517.967 286.6 518.804 287.443 518.804 289.128V295H516.948V288.968C516.948 288.467 516.698 288.216 516.196 288.216H513.556V295H511.684ZM520.913 294.264V293.24H525.553C526.023 293.24 526.257 293.005 526.257 292.536V291.56C526.257 291.144 526.071 290.899 525.697 290.824L522.785 290.248C521.537 289.992 520.913 289.155 520.913 287.736V287.032C520.913 285.304 521.783 284.44 523.521 284.44H523.745V282.52H525.377V284.44H526.945L527.889 285.176V286.2H523.569C523.1 286.2 522.865 286.435 522.865 286.904V287.784C522.865 288.2 523.052 288.445 523.425 288.52L526.337 289.096C527.585 289.352 528.209 290.184 528.209 291.592V292.408C528.209 294.136 527.34 295 525.601 295H525.377V296.92H523.745V295H521.857L520.913 294.264Z" fill="#00FF38"/>
<circle cx="519.336" cy="290" r="39" stroke="#00FF38" stroke-width="2"/>
<circle cx="281.336" cy="290" r="39" stroke="#ABABAB" stroke-width="2"/>
<circle cx="639.336" cy="409" r="39" stroke="#ABABAB" stroke-width="2"/>
<circle cx="162.336" cy="409" r="39" stroke="#ABABAB" stroke-width="2"/>
<path d="M35.6843 533V524.6H40.2923C41.967 524.6 42.8043 525.443 42.8043 527.128V533H40.9483V526.968C40.9483 526.467 40.6976 526.216 40.1963 526.216H37.5563V533H35.6843ZM44.9134 532.264V531.24H49.5534C50.0227 531.24 50.2574 531.005 50.2574 530.536V529.56C50.2574 529.144 50.0707 528.899 49.6974 528.824L46.7854 528.248C45.5374 527.992 44.9134 527.155 44.9134 525.736V525.032C44.9134 523.304 45.7827 522.44 47.5214 522.44H47.7454V520.52H49.3774V522.44H50.9454L51.8894 523.176V524.2H47.5694C47.1001 524.2 46.8654 524.435 46.8654 524.904V525.784C46.8654 526.2 47.0521 526.445 47.4254 526.52L50.3374 527.096C51.5854 527.352 52.2094 528.184 52.2094 529.592V530.408C52.2094 532.136 51.3401 533 49.6014 533H49.3774V534.92H47.7454V533H45.8574L44.9134 532.264Z" fill="#00FF38"/>
<circle cx="43.3358" cy="528" r="39" stroke="#00FF38" stroke-width="2"/>
<path d="M113.19 403.854C113.385 403.658 113.385 403.342 113.19 403.146L110.008 399.964C109.813 399.769 109.496 399.769 109.301 399.964C109.106 400.16 109.106 400.476 109.301 400.672L112.129 403.5L109.301 406.328C109.106 406.524 109.106 406.84 109.301 407.036C109.496 407.231 109.813 407.231 110.008 407.036L113.19 403.854ZM43.8365 486.5C43.8365 480.196 43.2738 471.953 43.6563 463.006C44.0378 454.082 45.3608 444.556 49.1083 435.822C52.8516 427.098 59.0171 419.156 69.1078 413.387C79.2062 407.614 93.2699 404 112.836 404V403C93.1526 403 78.9037 406.636 68.6115 412.519C58.3115 418.407 52.0084 426.527 48.1893 435.428C44.3744 444.319 43.0412 453.981 42.6572 462.963C42.2742 471.922 42.8365 480.304 42.8365 486.5H43.8365Z" fill="#5F5F5F"/>
<circle cx="399.336" cy="409" r="39" stroke="#ABABAB" stroke-width="2"/>
<rect x="150.836" y="253.5" width="75" height="26" rx="4.5" fill="#27282E" stroke="#27282E"/>
<path d="M161.044 271V269.936H163.438V262.404H161.534V261.83L162.164 261.34H164.614V269.936H166.784V271H161.044ZM168.409 265.68V262.74C168.409 261.807 168.876 261.34 169.809 261.34H170.929C171.863 261.34 172.329 261.807 172.329 262.74V265.68C172.329 266.613 171.863 267.08 170.929 267.08H169.809C168.876 267.08 168.409 266.613 168.409 265.68ZM169.305 265.82C169.305 266.119 169.455 266.268 169.753 266.268H170.985C171.284 266.268 171.433 266.119 171.433 265.82V262.6C171.433 262.301 171.284 262.152 170.985 262.152H169.753C169.455 262.152 169.305 262.301 169.305 262.6V265.82ZM171.139 270.58L175.759 261.34L176.599 261.76L171.979 271L171.139 270.58ZM175.409 269.6V266.66C175.409 265.727 175.876 265.26 176.809 265.26H177.929C178.863 265.26 179.329 265.727 179.329 266.66V269.6C179.329 270.533 178.863 271 177.929 271H176.809C175.876 271 175.409 270.533 175.409 269.6ZM176.305 269.74C176.305 270.039 176.455 270.188 176.753 270.188H177.985C178.284 270.188 178.433 270.039 178.433 269.74V266.52C178.433 266.221 178.284 266.072 177.985 266.072H176.753C176.455 266.072 176.305 266.221 176.305 266.52V269.74ZM190.972 267.234C190.972 268.475 190.654 269.437 190.02 270.118C189.394 270.799 188.545 271.14 187.472 271.14C186.809 271.14 186.216 270.991 185.694 270.692C185.18 270.384 184.774 269.941 184.476 269.362C184.177 268.774 184.028 268.065 184.028 267.234C184.028 265.993 184.34 265.036 184.966 264.364C185.591 263.692 186.44 263.356 187.514 263.356C188.195 263.356 188.792 263.51 189.306 263.818C189.828 264.117 190.234 264.555 190.524 265.134C190.822 265.703 190.972 266.403 190.972 267.234ZM185.302 267.234C185.302 268.121 185.474 268.825 185.82 269.348C186.174 269.861 186.734 270.118 187.5 270.118C188.256 270.118 188.811 269.861 189.166 269.348C189.52 268.825 189.698 268.121 189.698 267.234C189.698 266.347 189.52 265.652 189.166 265.148C188.811 264.644 188.251 264.392 187.486 264.392C186.72 264.392 186.165 264.644 185.82 265.148C185.474 265.652 185.302 266.347 185.302 267.234ZM197.968 264.532H195.518V271H194.3V264.532H191.878V263.496H197.968V264.532ZM202.739 271V263.72H206.659C208.059 263.72 208.759 264.42 208.759 265.82V271H207.639V265.68C207.639 265.027 207.312 264.7 206.659 264.7H203.859V271H202.739ZM210.788 270.51V269.936H214.82C215.455 269.936 215.772 269.619 215.772 268.984V268.046C215.772 267.514 215.534 267.201 215.058 267.108L212.328 266.562C211.301 266.357 210.788 265.666 210.788 264.49V263.902C210.788 262.474 211.502 261.76 212.93 261.76H213.378V260.08H214.358V261.76H216.038L216.668 262.25V262.824H212.916C212.281 262.824 211.964 263.141 211.964 263.776V264.574C211.964 265.106 212.202 265.419 212.678 265.512L215.408 266.058C216.435 266.263 216.948 266.954 216.948 268.13V268.858C216.948 270.286 216.234 271 214.806 271H214.358V272.68H213.378V271H211.418L210.788 270.51Z" fill="#DDDDDD"/>
<path d="M204.543 279.5L214.129 279.5L209.336 284.293L204.543 279.5Z" fill="#27282E" stroke="#27282E"/>
<path d="M214.336 278.5L209.329 283.615L204.336 278.5H214.336Z" fill="#27282E"/>
<path d="M236.189 290.354C236.385 290.158 236.385 289.842 236.189 289.646L233.007 286.464C232.812 286.269 232.496 286.269 232.3 286.464C232.105 286.66 232.105 286.976 232.3 287.172L235.129 290L232.3 292.828C232.105 293.024 232.105 293.34 232.3 293.536C232.496 293.731 232.812 293.731 233.007 293.536L236.189 290.354ZM43.7633 485.74C23.8782 453.125 8.81107 404.33 30.1412 363.733C51.4584 323.16 109.28 290.5 235.836 290.5V289.5C109.192 289.5 50.8468 322.174 29.256 363.267C7.67803 404.337 22.9611 453.542 42.9094 486.26L43.7633 485.74Z" fill="#5F5F5F"/>
<rect x="453.836" y="134.5" width="75" height="26" rx="4.5" fill="#27282E" stroke="#1D1F25"/>
<path d="M463.792 151.51V150.936H467.824C468.458 150.936 468.776 150.619 468.776 149.984V148.416C468.776 147.781 468.458 147.464 467.824 147.464H464.828V146.4H467.824C468.458 146.4 468.776 146.083 468.776 145.448V144.356C468.776 143.721 468.458 143.404 467.824 143.404H463.932V142.83L464.562 142.34H467.81C469.238 142.34 469.952 143.054 469.952 144.482V145.504C469.952 145.877 469.835 146.181 469.602 146.414L469.112 146.904L469.602 147.394C469.835 147.627 469.952 147.931 469.952 148.304V149.858C469.952 151.286 469.238 152 467.81 152H464.422L463.792 151.51ZM471.409 146.68V143.74C471.409 142.807 471.876 142.34 472.809 142.34H473.929C474.863 142.34 475.329 142.807 475.329 143.74V146.68C475.329 147.613 474.863 148.08 473.929 148.08H472.809C471.876 148.08 471.409 147.613 471.409 146.68ZM472.305 146.82C472.305 147.119 472.455 147.268 472.753 147.268H473.985C474.284 147.268 474.433 147.119 474.433 146.82V143.6C474.433 143.301 474.284 143.152 473.985 143.152H472.753C472.455 143.152 472.305 143.301 472.305 143.6V146.82ZM474.139 151.58L478.759 142.34L479.599 142.76L474.979 152L474.139 151.58ZM478.409 150.6V147.66C478.409 146.727 478.876 146.26 479.809 146.26H480.929C481.863 146.26 482.329 146.727 482.329 147.66V150.6C482.329 151.533 481.863 152 480.929 152H479.809C478.876 152 478.409 151.533 478.409 150.6ZM479.305 150.74C479.305 151.039 479.455 151.188 479.753 151.188H480.985C481.284 151.188 481.433 151.039 481.433 150.74V147.52C481.433 147.221 481.284 147.072 480.985 147.072H479.753C479.455 147.072 479.305 147.221 479.305 147.52V150.74ZM493.972 148.234C493.972 149.475 493.654 150.437 493.02 151.118C492.394 151.799 491.545 152.14 490.472 152.14C489.809 152.14 489.216 151.991 488.694 151.692C488.18 151.384 487.774 150.941 487.476 150.362C487.177 149.774 487.028 149.065 487.028 148.234C487.028 146.993 487.34 146.036 487.966 145.364C488.591 144.692 489.44 144.356 490.514 144.356C491.195 144.356 491.792 144.51 492.306 144.818C492.828 145.117 493.234 145.555 493.524 146.134C493.822 146.703 493.972 147.403 493.972 148.234ZM488.302 148.234C488.302 149.121 488.474 149.825 488.82 150.348C489.174 150.861 489.734 151.118 490.5 151.118C491.256 151.118 491.811 150.861 492.166 150.348C492.52 149.825 492.698 149.121 492.698 148.234C492.698 147.347 492.52 146.652 492.166 146.148C491.811 145.644 491.251 145.392 490.486 145.392C489.72 145.392 489.165 145.644 488.82 146.148C488.474 146.652 488.302 147.347 488.302 148.234ZM500.968 145.532H498.518V152H497.3V145.532H494.878V144.496H500.968V145.532ZM505.739 152V144.72H509.659C511.059 144.72 511.759 145.42 511.759 146.82V152H510.639V146.68C510.639 146.027 510.312 145.7 509.659 145.7H506.859V152H505.739ZM513.788 151.51V150.936H517.82C518.455 150.936 518.772 150.619 518.772 149.984V149.046C518.772 148.514 518.534 148.201 518.058 148.108L515.328 147.562C514.301 147.357 513.788 146.666 513.788 145.49V144.902C513.788 143.474 514.502 142.76 515.93 142.76H516.378V141.08H517.358V142.76H519.038L519.668 143.25V143.824H515.916C515.281 143.824 514.964 144.141 514.964 144.776V145.574C514.964 146.106 515.202 146.419 515.678 146.512L518.408 147.058C519.435 147.263 519.948 147.954 519.948 149.13V149.858C519.948 151.286 519.234 152 517.806 152H517.358V153.68H516.378V152H514.418L513.788 151.51Z" fill="#DCDCDC"/>
<path d="M464.543 160.5L474.129 160.5L469.336 165.293L464.543 160.5Z" fill="#1D1F25" stroke="#1D1F25"/>
<path d="M474.336 159.5L469.329 164.615L464.336 159.5H474.336Z" fill="#27282E"/>
<rect x="495.836" y="0.5" width="75" height="26" rx="4.5" fill="#27282E" stroke="#27282E"/>
<path d="M505.652 18V15.06C505.652 13.884 506.165 13.1933 507.192 12.988L510.062 12.414C510.538 12.3207 510.776 12.008 510.776 11.476V10.356C510.776 9.72133 510.458 9.404 509.824 9.404H505.932V8.83L506.562 8.34H509.81C511.238 8.34 511.952 9.054 511.952 10.482V11.392C511.952 12.568 511.438 13.2587 510.412 13.464L507.542 14.038C507.066 14.1313 506.828 14.444 506.828 14.976V16.936H511.952V18H505.652ZM513.409 12.68V9.74C513.409 8.80667 513.876 8.34 514.809 8.34H515.929C516.863 8.34 517.329 8.80667 517.329 9.74V12.68C517.329 13.6133 516.863 14.08 515.929 14.08H514.809C513.876 14.08 513.409 13.6133 513.409 12.68ZM514.305 12.82C514.305 13.1187 514.455 13.268 514.753 13.268H515.985C516.284 13.268 516.433 13.1187 516.433 12.82V9.6C516.433 9.30133 516.284 9.152 515.985 9.152H514.753C514.455 9.152 514.305 9.30133 514.305 9.6V12.82ZM516.139 17.58L520.759 8.34L521.599 8.76L516.979 18L516.139 17.58ZM520.409 16.6V13.66C520.409 12.7267 520.876 12.26 521.809 12.26H522.929C523.863 12.26 524.329 12.7267 524.329 13.66V16.6C524.329 17.5333 523.863 18 522.929 18H521.809C520.876 18 520.409 17.5333 520.409 16.6ZM521.305 16.74C521.305 17.0387 521.455 17.188 521.753 17.188H522.985C523.284 17.188 523.433 17.0387 523.433 16.74V13.52C523.433 13.2213 523.284 13.072 522.985 13.072H521.753C521.455 13.072 521.305 13.2213 521.305 13.52V16.74ZM535.972 14.234C535.972 15.4753 535.654 16.4367 535.02 17.118C534.394 17.7993 533.545 18.14 532.472 18.14C531.809 18.14 531.216 17.9907 530.694 17.692C530.18 17.384 529.774 16.9407 529.476 16.362C529.177 15.774 529.028 15.0647 529.028 14.234C529.028 12.9927 529.34 12.036 529.966 11.364C530.591 10.692 531.44 10.356 532.514 10.356C533.195 10.356 533.792 10.51 534.306 10.818C534.828 11.1167 535.234 11.5553 535.524 12.134C535.822 12.7033 535.972 13.4033 535.972 14.234ZM530.302 14.234C530.302 15.1207 530.474 15.8253 530.82 16.348C531.174 16.8613 531.734 17.118 532.5 17.118C533.256 17.118 533.811 16.8613 534.166 16.348C534.52 15.8253 534.698 15.1207 534.698 14.234C534.698 13.3473 534.52 12.652 534.166 12.148C533.811 11.644 533.251 11.392 532.486 11.392C531.72 11.392 531.165 11.644 530.82 12.148C530.474 12.652 530.302 13.3473 530.302 14.234ZM542.968 11.532H540.518V18H539.3V11.532H536.878V10.496H542.968V11.532ZM547.739 18V10.72H551.659C553.059 10.72 553.759 11.42 553.759 12.82V18H552.639V12.68C552.639 12.0267 552.312 11.7 551.659 11.7H548.859V18H547.739ZM555.788 17.51V16.936H559.82C560.455 16.936 560.772 16.6187 560.772 15.984V15.046C560.772 14.514 560.534 14.2013 560.058 14.108L557.328 13.562C556.301 13.3567 555.788 12.666 555.788 11.49V10.902C555.788 9.474 556.502 8.76 557.93 8.76H558.378V7.08H559.358V8.76H561.038L561.668 9.25V9.824H557.916C557.281 9.824 556.964 10.1413 556.964 10.776V11.574C556.964 12.106 557.202 12.4187 557.678 12.512L560.408 13.058C561.435 13.2633 561.948 13.954 561.948 15.13V15.858C561.948 17.286 561.234 18 559.806 18H559.358V19.68H558.378V18H556.418L555.788 17.51Z" fill="#DCDCDC"/>
<path d="M506.543 26.5L516.129 26.5L511.336 31.2929L506.543 26.5Z" fill="#27282E" stroke="#27282E"/>
<path d="M516.336 25.5L511.329 30.6151L506.336 25.5H516.336Z" fill="#27282E"/>
<rect x="271.836" y="134.5" width="75" height="26" rx="4.5" fill="#27282E" stroke="#27282E"/>
<path d="M282.044 152V150.936H284.438V143.404H282.534V142.83L283.164 142.34H285.614V150.936H287.784V152H282.044ZM289.409 146.68V143.74C289.409 142.807 289.876 142.34 290.809 142.34H291.929C292.863 142.34 293.329 142.807 293.329 143.74V146.68C293.329 147.613 292.863 148.08 291.929 148.08H290.809C289.876 148.08 289.409 147.613 289.409 146.68ZM290.305 146.82C290.305 147.119 290.455 147.268 290.753 147.268H291.985C292.284 147.268 292.433 147.119 292.433 146.82V143.6C292.433 143.301 292.284 143.152 291.985 143.152H290.753C290.455 143.152 290.305 143.301 290.305 143.6V146.82ZM292.139 151.58L296.759 142.34L297.599 142.76L292.979 152L292.139 151.58ZM296.409 150.6V147.66C296.409 146.727 296.876 146.26 297.809 146.26H298.929C299.863 146.26 300.329 146.727 300.329 147.66V150.6C300.329 151.533 299.863 152 298.929 152H297.809C296.876 152 296.409 151.533 296.409 150.6ZM297.305 150.74C297.305 151.039 297.455 151.188 297.753 151.188H298.985C299.284 151.188 299.433 151.039 299.433 150.74V147.52C299.433 147.221 299.284 147.072 298.985 147.072H297.753C297.455 147.072 297.305 147.221 297.305 147.52V150.74ZM311.972 148.234C311.972 149.475 311.654 150.437 311.02 151.118C310.394 151.799 309.545 152.14 308.472 152.14C307.809 152.14 307.216 151.991 306.694 151.692C306.18 151.384 305.774 150.941 305.476 150.362C305.177 149.774 305.028 149.065 305.028 148.234C305.028 146.993 305.34 146.036 305.966 145.364C306.591 144.692 307.44 144.356 308.514 144.356C309.195 144.356 309.792 144.51 310.306 144.818C310.828 145.117 311.234 145.555 311.524 146.134C311.822 146.703 311.972 147.403 311.972 148.234ZM306.302 148.234C306.302 149.121 306.474 149.825 306.82 150.348C307.174 150.861 307.734 151.118 308.5 151.118C309.256 151.118 309.811 150.861 310.166 150.348C310.52 149.825 310.698 149.121 310.698 148.234C310.698 147.347 310.52 146.652 310.166 146.148C309.811 145.644 309.251 145.392 308.486 145.392C307.72 145.392 307.165 145.644 306.82 146.148C306.474 146.652 306.302 147.347 306.302 148.234ZM318.968 145.532H316.518V152H315.3V145.532H312.878V144.496H318.968V145.532ZM323.739 152V144.72H327.659C329.059 144.72 329.759 145.42 329.759 146.82V152H328.639V146.68C328.639 146.027 328.312 145.7 327.659 145.7H324.859V152H323.739ZM331.788 151.51V150.936H335.82C336.455 150.936 336.772 150.619 336.772 149.984V149.046C336.772 148.514 336.534 148.201 336.058 148.108L333.328 147.562C332.301 147.357 331.788 146.666 331.788 145.49V144.902C331.788 143.474 332.502 142.76 333.93 142.76H334.378V141.08H335.358V142.76H337.038L337.668 143.25V143.824H333.916C333.281 143.824 332.964 144.141 332.964 144.776V145.574C332.964 146.106 333.202 146.419 333.678 146.512L336.408 147.058C337.435 147.263 337.948 147.954 337.948 149.13V149.858C337.948 151.286 337.234 152 335.806 152H335.358V153.68H334.378V152H332.418L331.788 151.51Z" fill="#DCDCDC"/>
<path d="M325.543 160.5L335.129 160.5L330.336 165.293L325.543 160.5Z" fill="#27282E" stroke="#27282E"/>
<path d="M335.336 159.5L330.329 164.615L325.336 159.5H335.336Z" fill="#27282E"/>
<path d="M355.689 170.854C355.885 170.658 355.885 170.342 355.689 170.146L352.507 166.964C352.312 166.769 351.996 166.769 351.8 166.964C351.605 167.16 351.605 167.476 351.8 167.672L354.629 170.5L351.8 173.328C351.605 173.524 351.605 173.84 351.8 174.036C351.996 174.231 352.312 174.231 352.507 174.036L355.689 170.854ZM43.7198 485.68C-0.00634396 433.225 -15.9339 354.588 25.8822 289.082C67.7042 223.566 167.403 171 355.336 171V170C167.269 170 67.134 222.601 25.0393 288.543C-17.0612 354.495 -0.988804 433.608 42.9517 486.32L43.7198 485.68Z" fill="#5F5F5F"/>
<rect x="37.8358" y="368.5" width="75" height="26" rx="4.5" fill="#27282E" stroke="#27282E"/>
<path d="M47.7917 385.51V384.936H51.8237C52.4584 384.936 52.7757 384.619 52.7757 383.984V382.416C52.7757 381.781 52.4584 381.464 51.8237 381.464H48.8277V380.4H51.8237C52.4584 380.4 52.7757 380.083 52.7757 379.448V378.356C52.7757 377.721 52.4584 377.404 51.8237 377.404H47.9317V376.83L48.5617 376.34H51.8097C53.2377 376.34 53.9517 377.054 53.9517 378.482V379.504C53.9517 379.877 53.8351 380.181 53.6017 380.414L53.1117 380.904L53.6017 381.394C53.8351 381.627 53.9517 381.931 53.9517 382.304V383.858C53.9517 385.286 53.2377 386 51.8097 386H48.4217L47.7917 385.51ZM55.4095 380.68V377.74C55.4095 376.807 55.8762 376.34 56.8095 376.34H57.9295C58.8628 376.34 59.3295 376.807 59.3295 377.74V380.68C59.3295 381.613 58.8628 382.08 57.9295 382.08H56.8095C55.8762 382.08 55.4095 381.613 55.4095 380.68ZM56.3055 380.82C56.3055 381.119 56.4548 381.268 56.7535 381.268H57.9855C58.2842 381.268 58.4335 381.119 58.4335 380.82V377.6C58.4335 377.301 58.2842 377.152 57.9855 377.152H56.7535C56.4548 377.152 56.3055 377.301 56.3055 377.6V380.82ZM58.1395 385.58L62.7595 376.34L63.5995 376.76L58.9795 386L58.1395 385.58ZM62.4095 384.6V381.66C62.4095 380.727 62.8762 380.26 63.8095 380.26H64.9295C65.8628 380.26 66.3295 380.727 66.3295 381.66V384.6C66.3295 385.533 65.8628 386 64.9295 386H63.8095C62.8762 386 62.4095 385.533 62.4095 384.6ZM63.3055 384.74C63.3055 385.039 63.4548 385.188 63.7535 385.188H64.9855C65.2842 385.188 65.4335 385.039 65.4335 384.74V381.52C65.4335 381.221 65.2842 381.072 64.9855 381.072H63.7535C63.4548 381.072 63.3055 381.221 63.3055 381.52V384.74ZM77.9717 382.234C77.9717 383.475 77.6544 384.437 77.0197 385.118C76.3944 385.799 75.545 386.14 74.4717 386.14C73.809 386.14 73.2164 385.991 72.6937 385.692C72.1804 385.384 71.7744 384.941 71.4757 384.362C71.177 383.774 71.0277 383.065 71.0277 382.234C71.0277 380.993 71.3404 380.036 71.9657 379.364C72.591 378.692 73.4404 378.356 74.5137 378.356C75.195 378.356 75.7924 378.51 76.3057 378.818C76.8284 379.117 77.2344 379.555 77.5237 380.134C77.8224 380.703 77.9717 381.403 77.9717 382.234ZM72.3017 382.234C72.3017 383.121 72.4744 383.825 72.8197 384.348C73.1744 384.861 73.7344 385.118 74.4997 385.118C75.2557 385.118 75.811 384.861 76.1657 384.348C76.5204 383.825 76.6977 383.121 76.6977 382.234C76.6977 381.347 76.5204 380.652 76.1657 380.148C75.811 379.644 75.251 379.392 74.4857 379.392C73.7204 379.392 73.165 379.644 72.8197 380.148C72.4744 380.652 72.3017 381.347 72.3017 382.234ZM84.9675 379.532H82.5175V386H81.2995V379.532H78.8775V378.496H84.9675V379.532ZM89.739 386V378.72H93.659C95.059 378.72 95.759 379.42 95.759 380.82V386H94.639V380.68C94.639 380.027 94.3124 379.7 93.659 379.7H90.859V386H89.739ZM97.7881 385.51V384.936H101.82C102.455 384.936 102.772 384.619 102.772 383.984V383.046C102.772 382.514 102.534 382.201 102.058 382.108L99.3281 381.562C98.3015 381.357 97.7881 380.666 97.7881 379.49V378.902C97.7881 377.474 98.5021 376.76 99.9301 376.76H100.378V375.08H101.358V376.76H103.038L103.668 377.25V377.824H99.9161C99.2815 377.824 98.9641 378.141 98.9641 378.776V379.574C98.9641 380.106 99.2021 380.419 99.6781 380.512L102.408 381.058C103.435 381.263 103.948 381.954 103.948 383.13V383.858C103.948 385.286 103.234 386 101.806 386H101.358V387.68H100.378V386H98.4181L97.7881 385.51Z" fill="#DDDDDD"/>
<path d="M91.5429 394.5L101.129 394.5L96.3358 399.293L91.5429 394.5Z" fill="#27282E" stroke="#27282E"/>
<path d="M101.336 393.5L96.329 398.615L91.3358 393.5H101.336Z" fill="#27282E"/>
<path d="M486.482 37.6464C486.287 37.8417 486.287 38.1583 486.482 38.3536L489.664 41.5355C489.86 41.7308 490.176 41.7308 490.371 41.5355C490.567 41.3403 490.567 41.0237 490.371 40.8284L487.543 38L490.371 35.1716C490.567 34.9763 490.567 34.6597 490.371 34.4645C490.176 34.2692 489.86 34.2692 489.664 34.4645L486.482 37.6464ZM521.258 247.268C543.19 212.66 567.844 160.323 570.422 116.592C571.712 94.7179 567.482 74.9222 554.54 60.5945C541.593 46.2622 520.018 37.5 486.836 37.5V38.5C519.854 38.5 541.108 47.217 553.798 61.2649C566.492 75.3174 570.705 94.8029 569.424 116.533C566.861 160.01 542.315 212.173 520.413 246.732L521.258 247.268Z" fill="#5F5F5F"/>
</svg>
