<svg width="680" height="569" viewBox="0 0 680 569" fill="none" xmlns="http://www.w3.org/2000/svg">
<path d="M445.982 170.146C445.787 170.342 445.787 170.658 445.982 170.854L449.164 174.036C449.36 174.231 449.676 174.231 449.871 174.036C450.067 173.84 450.067 173.524 449.871 173.328L447.043 170.5L449.871 167.672C450.067 167.476 450.067 167.16 449.871 166.964C449.676 166.769 449.36 166.769 449.164 166.964L445.982 170.146ZM521.336 247.51C521.587 234.598 518.145 215.238 506.985 199.091C495.805 182.916 476.902 170 446.336 170V171C476.57 171 495.167 183.751 506.162 199.659C517.176 215.595 520.585 234.735 520.336 247.49L521.336 247.51Z" fill="#5F5F5F"/>
<path d="M445.689 214.646C445.494 214.451 445.178 214.451 444.982 214.646C444.787 214.842 444.787 215.158 444.982 215.354L445.689 214.646ZM471.336 241.5C471.612 241.5 471.836 241.276 471.836 241V236.5C471.836 236.224 471.612 236 471.336 236C471.06 236 470.836 236.224 470.836 236.5V240.5H466.836C466.56 240.5 466.336 240.724 466.336 241C466.336 241.276 466.56 241.5 466.836 241.5H471.336ZM444.982 215.354L470.982 241.354L471.689 240.646L445.689 214.646L444.982 215.354Z" fill="#5F5F5F"/>
<path d="M567.689 336.646C567.494 336.451 567.178 336.451 566.982 336.646C566.787 336.842 566.787 337.158 566.982 337.354L567.689 336.646ZM593.336 363.5C593.612 363.5 593.836 363.276 593.836 363V358.5C593.836 358.224 593.612 358 593.336 358C593.06 358 592.836 358.224 592.836 358.5V362.5H588.836C588.56 362.5 588.336 362.724 588.336 363C588.336 363.276 588.56 363.5 588.836 363.5H593.336ZM566.982 337.354L592.982 363.354L593.689 362.646L567.689 336.646L566.982 337.354Z" fill="#5F5F5F"/>
<path d="M327.689 335.646C327.494 335.451 327.178 335.451 326.982 335.646C326.787 335.842 326.787 336.158 326.982 336.354L327.689 335.646ZM353.336 362.5C353.612 362.5 353.836 362.276 353.836 362V357.5C353.836 357.224 353.612 357 353.336 357C353.06 357 352.836 357.224 352.836 357.5V361.5H348.836C348.56 361.5 348.336 361.724 348.336 362C348.336 362.276 348.56 362.5 348.836 362.5H353.336ZM326.982 336.354L352.982 362.354L353.689 361.646L327.689 335.646L326.982 336.354Z" fill="#5F5F5F"/>
<path d="M210.689 454.646C210.494 454.451 210.178 454.451 209.982 454.646C209.787 454.842 209.787 455.158 209.982 455.354L210.689 454.646ZM236.336 481.5C236.612 481.5 236.836 481.276 236.836 481V476.5C236.836 476.224 236.612 476 236.336 476C236.06 476 235.836 476.224 235.836 476.5V480.5H231.836C231.56 480.5 231.336 480.724 231.336 481C231.336 481.276 231.56 481.5 231.836 481.5H236.336ZM209.982 455.354L235.982 481.354L236.689 480.646L210.689 454.646L209.982 455.354Z" fill="#5F5F5F"/>
<path d="M235.982 335.646C236.178 335.451 236.494 335.451 236.689 335.646C236.885 335.842 236.885 336.158 236.689 336.354L235.982 335.646ZM210.336 362.5C210.06 362.5 209.836 362.276 209.836 362V357.5C209.836 357.224 210.06 357 210.336 357C210.612 357 210.836 357.224 210.836 357.5V361.5H214.836C215.112 361.5 215.336 361.724 215.336 362C215.336 362.276 215.112 362.5 214.836 362.5H210.336ZM236.689 336.354L210.689 362.354L209.982 361.646L235.982 335.646L236.689 336.354Z" fill="#5F5F5F"/>
<path d="M352.982 214.646C353.178 214.451 353.494 214.451 353.689 214.646C353.885 214.842 353.885 215.158 353.689 215.354L352.982 214.646ZM327.336 241.5C327.06 241.5 326.836 241.276 326.836 241V236.5C326.836 236.224 327.06 236 327.336 236C327.612 236 327.836 236.224 327.836 236.5V240.5H331.836C332.112 240.5 332.336 240.724 332.336 241C332.336 241.276 332.112 241.5 331.836 241.5H327.336ZM353.689 215.354L327.689 241.354L326.982 240.646L352.982 214.646L353.689 215.354Z" fill="#5F5F5F"/>
<path d="M112.982 454.646C113.178 454.451 113.494 454.451 113.689 454.646C113.885 454.842 113.885 455.158 113.689 455.354L112.982 454.646ZM87.3358 481.5C87.0597 481.5 86.8358 481.276 86.8358 481V476.5C86.8358 476.224 87.0597 476 87.3358 476C87.612 476 87.8358 476.224 87.8358 476.5V480.5H91.8358C92.112 480.5 92.3358 480.724 92.3358 481C92.3358 481.276 92.112 481.5 91.8358 481.5H87.3358ZM113.689 455.354L87.6894 481.354L86.9823 480.646L112.982 454.646L113.689 455.354Z" fill="#5F5F5F"/>
<rect x="320.336" y="7" width="158" height="62" rx="4" fill="#1B1C21" stroke="#00FF38" stroke-width="2"/>
<path d="M387.536 40.408V34.552C387.536 32.824 388.4 31.96 390.128 31.96H394.832L395.776 32.696V33.72H390.192C389.723 33.72 389.488 33.9547 389.488 34.424V40.536C389.488 41.0053 389.723 41.24 390.192 41.24H394.144V38.152H391.808V36.392H396.096V43H390.128C388.4 43 387.536 42.136 387.536 40.408ZM398.493 43V31.96H400.445V36.808L404.781 31.96H406.589L406.781 32.36L403.069 36.504L407.181 42.6L406.989 43H405.197L401.805 37.912L400.445 39.4V43H398.493Z" fill="#1CFF40"/>
<path d="M383.141 176V164.96H390.565V166.72H385.093V169.392H390.085V171.152H385.093V174.24H390.565V176H383.141ZM392.559 176V167.6H402.127C403.802 167.6 404.639 168.443 404.639 170.128V176H402.783V169.968C402.783 169.467 402.533 169.216 402.031 169.216H399.535V176H397.663V169.216H394.431V176H392.559ZM406.949 166.176V164.288H408.885V166.176H406.949ZM406.981 176V167.6H408.853V176H406.981ZM411.167 173.216V164.16H413.039V173.408C413.039 174.091 413.391 174.464 414.095 174.528V176.144C412.143 176.144 411.167 175.168 411.167 173.216ZM415.203 168.256L416.243 164.16H417.971L418.163 164.448L416.579 168.608L415.203 168.256Z" fill="white"/>
<circle cx="400.336" cy="171" r="39" stroke="white" stroke-width="2"/>
<circle cx="280.336" cy="529" r="39" stroke="#ABABAB" stroke-width="2"/>
<path d="M515.956 294.68L518.788 290.744L516.036 286.92L516.196 286.6H517.908L519.828 289.352L521.748 286.6H523.476L523.62 286.92L520.884 290.744L523.716 294.68L523.556 295H521.844L519.828 292.136L517.828 295H516.1L515.956 294.68Z" fill="#00FF38"/>
<circle cx="519.336" cy="290" r="39" stroke="#00FF38" stroke-width="2"/>
<circle cx="281.336" cy="290" r="39" stroke="#ABABAB" stroke-width="2"/>
<circle cx="639.336" cy="409" r="39" stroke="#ABABAB" stroke-width="2"/>
<circle cx="162.336" cy="409" r="39" stroke="#ABABAB" stroke-width="2"/>
<path d="M39.9561 532.68L42.7881 528.744L40.0361 524.92L40.1961 524.6H41.9081L43.8281 527.352L45.7481 524.6H47.4761L47.6201 524.92L44.8841 528.744L47.7161 532.68L47.5561 533H45.8441L43.8281 530.136L41.8281 533H40.1001L39.9561 532.68Z" fill="#00FF38"/>
<circle cx="43.3358" cy="528" r="39" stroke="#00FF38" stroke-width="2"/>
<path d="M113.19 403.854C113.385 403.658 113.385 403.342 113.19 403.146L110.008 399.964C109.813 399.769 109.496 399.769 109.301 399.964C109.106 400.16 109.106 400.476 109.301 400.672L112.129 403.5L109.301 406.328C109.106 406.524 109.106 406.84 109.301 407.036C109.496 407.231 109.813 407.231 110.008 407.036L113.19 403.854ZM43.8365 486.5C43.8365 480.196 43.2738 471.953 43.6563 463.006C44.0378 454.082 45.3608 444.556 49.1082 435.822C52.8515 427.098 59.0171 419.156 69.1077 413.387C79.2062 407.614 93.2699 404 112.836 404V403C93.1525 403 78.9036 406.636 68.6115 412.519C58.3115 418.407 52.0084 426.527 48.1893 435.428C44.3743 444.319 43.0412 453.981 42.6572 462.963C42.2742 471.922 42.8365 480.304 42.8365 486.5H43.8365Z" fill="#5F5F5F"/>
<circle cx="399.336" cy="409" r="39" stroke="#ABABAB" stroke-width="2"/>
<rect x="150.836" y="253.5" width="75" height="26" rx="4.5" fill="#27282E" stroke="#27282E"/>
<path d="M165.055 271V269.936H167.449V262.404H165.545V261.83L166.175 261.34H168.625V269.936H170.795V271H165.055ZM172.421 265.68V262.74C172.421 261.807 172.888 261.34 173.821 261.34H174.941C175.875 261.34 176.341 261.807 176.341 262.74V265.68C176.341 266.613 175.875 267.08 174.941 267.08H173.821C172.888 267.08 172.421 266.613 172.421 265.68ZM173.317 265.82C173.317 266.119 173.467 266.268 173.765 266.268H174.997C175.296 266.268 175.445 266.119 175.445 265.82V262.6C175.445 262.301 175.296 262.152 174.997 262.152H173.765C173.467 262.152 173.317 262.301 173.317 262.6V265.82ZM175.151 270.58L179.771 261.34L180.611 261.76L175.991 271L175.151 270.58ZM179.421 269.6V266.66C179.421 265.727 179.888 265.26 180.821 265.26H181.941C182.875 265.26 183.341 265.727 183.341 266.66V269.6C183.341 270.533 182.875 271 181.941 271H180.821C179.888 271 179.421 270.533 179.421 269.6ZM180.317 269.74C180.317 270.039 180.467 270.188 180.765 270.188H181.997C182.296 270.188 182.445 270.039 182.445 269.74V266.52C182.445 266.221 182.296 266.072 181.997 266.072H180.765C180.467 266.072 180.317 266.221 180.317 266.52V269.74ZM194.983 267.234C194.983 268.475 194.666 269.437 194.031 270.118C193.406 270.799 192.557 271.14 191.483 271.14C190.821 271.14 190.228 270.991 189.705 270.692C189.192 270.384 188.786 269.941 188.487 269.362C188.189 268.774 188.039 268.065 188.039 267.234C188.039 265.993 188.352 265.036 188.977 264.364C189.603 263.692 190.452 263.356 191.525 263.356C192.207 263.356 192.804 263.51 193.317 263.818C193.84 264.117 194.246 264.555 194.535 265.134C194.834 265.703 194.983 266.403 194.983 267.234ZM189.313 267.234C189.313 268.121 189.486 268.825 189.831 269.348C190.186 269.861 190.746 270.118 191.511 270.118C192.267 270.118 192.823 269.861 193.177 269.348C193.532 268.825 193.709 268.121 193.709 267.234C193.709 266.347 193.532 265.652 193.177 265.148C192.823 264.644 192.263 264.392 191.497 264.392C190.732 264.392 190.177 264.644 189.831 265.148C189.486 265.652 189.313 266.347 189.313 267.234ZM201.979 264.532H199.529V271H198.311V264.532H195.889V263.496H201.979V264.532ZM206.051 270.79L208.627 267.29L206.149 263.93L206.247 263.72H207.283L209.271 266.478L211.259 263.72H212.295L212.393 263.93L209.915 267.29L212.491 270.79L212.393 271H211.357L209.271 268.102L207.185 271H206.149L206.051 270.79Z" fill="#DDDDDD"/>
<path d="M204.543 279.5L214.129 279.5L209.336 284.293L204.543 279.5Z" fill="#27282E" stroke="#27282E"/>
<path d="M214.336 278.5L209.329 283.615L204.336 278.5H214.336Z" fill="#27282E"/>
<path d="M236.189 290.354C236.385 290.158 236.385 289.842 236.189 289.646L233.007 286.464C232.812 286.269 232.496 286.269 232.3 286.464C232.105 286.66 232.105 286.976 232.3 287.172L235.129 290L232.3 292.828C232.105 293.024 232.105 293.34 232.3 293.536C232.496 293.731 232.812 293.731 233.007 293.536L236.189 290.354ZM43.7632 485.74C23.8782 453.125 8.81104 404.33 30.1412 363.733C51.4584 323.16 109.28 290.5 235.836 290.5V289.5C109.192 289.5 50.8468 322.174 29.2559 363.267C7.678 404.337 22.9611 453.542 42.9094 486.26L43.7632 485.74Z" fill="#5F5F5F"/>
<rect x="453.836" y="134.5" width="75" height="26" rx="4.5" fill="#27282E" stroke="#1D1F25"/>
<path d="M467.804 151.51V150.936H471.836C472.47 150.936 472.788 150.619 472.788 149.984V148.416C472.788 147.781 472.47 147.464 471.836 147.464H468.84V146.4H471.836C472.47 146.4 472.788 146.083 472.788 145.448V144.356C472.788 143.721 472.47 143.404 471.836 143.404H467.944V142.83L468.574 142.34H471.822C473.25 142.34 473.964 143.054 473.964 144.482V145.504C473.964 145.877 473.847 146.181 473.614 146.414L473.124 146.904L473.614 147.394C473.847 147.627 473.964 147.931 473.964 148.304V149.858C473.964 151.286 473.25 152 471.822 152H468.434L467.804 151.51ZM475.421 146.68V143.74C475.421 142.807 475.888 142.34 476.821 142.34H477.941C478.875 142.34 479.341 142.807 479.341 143.74V146.68C479.341 147.613 478.875 148.08 477.941 148.08H476.821C475.888 148.08 475.421 147.613 475.421 146.68ZM476.317 146.82C476.317 147.119 476.467 147.268 476.765 147.268H477.997C478.296 147.268 478.445 147.119 478.445 146.82V143.6C478.445 143.301 478.296 143.152 477.997 143.152H476.765C476.467 143.152 476.317 143.301 476.317 143.6V146.82ZM478.151 151.58L482.771 142.34L483.611 142.76L478.991 152L478.151 151.58ZM482.421 150.6V147.66C482.421 146.727 482.888 146.26 483.821 146.26H484.941C485.875 146.26 486.341 146.727 486.341 147.66V150.6C486.341 151.533 485.875 152 484.941 152H483.821C482.888 152 482.421 151.533 482.421 150.6ZM483.317 150.74C483.317 151.039 483.467 151.188 483.765 151.188H484.997C485.296 151.188 485.445 151.039 485.445 150.74V147.52C485.445 147.221 485.296 147.072 484.997 147.072H483.765C483.467 147.072 483.317 147.221 483.317 147.52V150.74ZM497.984 148.234C497.984 149.475 497.666 150.437 497.032 151.118C496.406 151.799 495.557 152.14 494.484 152.14C493.821 152.14 493.228 151.991 492.706 151.692C492.192 151.384 491.786 150.941 491.488 150.362C491.189 149.774 491.04 149.065 491.04 148.234C491.04 146.993 491.352 146.036 491.978 145.364C492.603 144.692 493.452 144.356 494.526 144.356C495.207 144.356 495.804 144.51 496.318 144.818C496.84 145.117 497.246 145.555 497.536 146.134C497.834 146.703 497.984 147.403 497.984 148.234ZM492.314 148.234C492.314 149.121 492.486 149.825 492.832 150.348C493.186 150.861 493.746 151.118 494.512 151.118C495.268 151.118 495.823 150.861 496.178 150.348C496.532 149.825 496.71 149.121 496.71 148.234C496.71 147.347 496.532 146.652 496.178 146.148C495.823 145.644 495.263 145.392 494.498 145.392C493.732 145.392 493.177 145.644 492.832 146.148C492.486 146.652 492.314 147.347 492.314 148.234ZM504.979 145.532H502.529V152H501.311V145.532H498.889V144.496H504.979V145.532ZM509.051 151.79L511.627 148.29L509.149 144.93L509.247 144.72H510.283L512.271 147.478L514.259 144.72H515.295L515.393 144.93L512.915 148.29L515.491 151.79L515.393 152H514.357L512.271 149.102L510.185 152H509.149L509.051 151.79Z" fill="#DCDCDC"/>
<path d="M464.543 160.5L474.129 160.5L469.336 165.293L464.543 160.5Z" fill="#1D1F25" stroke="#1D1F25"/>
<path d="M474.336 159.5L469.329 164.615L464.336 159.5H474.336Z" fill="#27282E"/>
<rect x="495.836" y="0.5" width="75" height="26" rx="4.5" fill="#27282E" stroke="#27282E"/>
<path d="M509.664 18V15.06C509.664 13.884 510.177 13.1933 511.204 12.988L514.074 12.414C514.55 12.3207 514.788 12.008 514.788 11.476V10.356C514.788 9.72133 514.47 9.404 513.836 9.404H509.944V8.83L510.574 8.34H513.822C515.25 8.34 515.964 9.054 515.964 10.482V11.392C515.964 12.568 515.45 13.2587 514.424 13.464L511.554 14.038C511.078 14.1313 510.84 14.444 510.84 14.976V16.936H515.964V18H509.664ZM517.421 12.68V9.74C517.421 8.80667 517.888 8.34 518.821 8.34H519.941C520.875 8.34 521.341 8.80667 521.341 9.74V12.68C521.341 13.6133 520.875 14.08 519.941 14.08H518.821C517.888 14.08 517.421 13.6133 517.421 12.68ZM518.317 12.82C518.317 13.1187 518.467 13.268 518.765 13.268H519.997C520.296 13.268 520.445 13.1187 520.445 12.82V9.6C520.445 9.30133 520.296 9.152 519.997 9.152H518.765C518.467 9.152 518.317 9.30133 518.317 9.6V12.82ZM520.151 17.58L524.771 8.34L525.611 8.76L520.991 18L520.151 17.58ZM524.421 16.6V13.66C524.421 12.7267 524.888 12.26 525.821 12.26H526.941C527.875 12.26 528.341 12.7267 528.341 13.66V16.6C528.341 17.5333 527.875 18 526.941 18H525.821C524.888 18 524.421 17.5333 524.421 16.6ZM525.317 16.74C525.317 17.0387 525.467 17.188 525.765 17.188H526.997C527.296 17.188 527.445 17.0387 527.445 16.74V13.52C527.445 13.2213 527.296 13.072 526.997 13.072H525.765C525.467 13.072 525.317 13.2213 525.317 13.52V16.74ZM539.984 14.234C539.984 15.4753 539.666 16.4367 539.032 17.118C538.406 17.7993 537.557 18.14 536.484 18.14C535.821 18.14 535.228 17.9907 534.706 17.692C534.192 17.384 533.786 16.9407 533.488 16.362C533.189 15.774 533.04 15.0647 533.04 14.234C533.04 12.9927 533.352 12.036 533.978 11.364C534.603 10.692 535.452 10.356 536.526 10.356C537.207 10.356 537.804 10.51 538.318 10.818C538.84 11.1167 539.246 11.5553 539.536 12.134C539.834 12.7033 539.984 13.4033 539.984 14.234ZM534.314 14.234C534.314 15.1207 534.486 15.8253 534.832 16.348C535.186 16.8613 535.746 17.118 536.512 17.118C537.268 17.118 537.823 16.8613 538.178 16.348C538.532 15.8253 538.71 15.1207 538.71 14.234C538.71 13.3473 538.532 12.652 538.178 12.148C537.823 11.644 537.263 11.392 536.498 11.392C535.732 11.392 535.177 11.644 534.832 12.148C534.486 12.652 534.314 13.3473 534.314 14.234ZM546.979 11.532H544.529V18H543.311V11.532H540.889V10.496H546.979V11.532ZM551.051 17.79L553.627 14.29L551.149 10.93L551.247 10.72H552.283L554.271 13.478L556.259 10.72H557.295L557.393 10.93L554.915 14.29L557.491 17.79L557.393 18H556.357L554.271 15.102L552.185 18H551.149L551.051 17.79Z" fill="#DCDCDC"/>
<path d="M506.543 26.5L516.129 26.5L511.336 31.2929L506.543 26.5Z" fill="#27282E" stroke="#27282E"/>
<path d="M516.336 25.5L511.329 30.6151L506.336 25.5H516.336Z" fill="#27282E"/>
<rect x="271.836" y="134.5" width="75" height="26" rx="4.5" fill="#27282E" stroke="#27282E"/>
<path d="M286.056 152V150.936H288.45V143.404H286.546V142.83L287.176 142.34H289.626V150.936H291.796V152H286.056ZM293.421 146.68V143.74C293.421 142.807 293.888 142.34 294.821 142.34H295.941C296.875 142.34 297.341 142.807 297.341 143.74V146.68C297.341 147.613 296.875 148.08 295.941 148.08H294.821C293.888 148.08 293.421 147.613 293.421 146.68ZM294.317 146.82C294.317 147.119 294.467 147.268 294.765 147.268H295.997C296.296 147.268 296.445 147.119 296.445 146.82V143.6C296.445 143.301 296.296 143.152 295.997 143.152H294.765C294.467 143.152 294.317 143.301 294.317 143.6V146.82ZM296.151 151.58L300.771 142.34L301.611 142.76L296.991 152L296.151 151.58ZM300.421 150.6V147.66C300.421 146.727 300.888 146.26 301.821 146.26H302.941C303.875 146.26 304.341 146.727 304.341 147.66V150.6C304.341 151.533 303.875 152 302.941 152H301.821C300.888 152 300.421 151.533 300.421 150.6ZM301.317 150.74C301.317 151.039 301.467 151.188 301.765 151.188H302.997C303.296 151.188 303.445 151.039 303.445 150.74V147.52C303.445 147.221 303.296 147.072 302.997 147.072H301.765C301.467 147.072 301.317 147.221 301.317 147.52V150.74ZM315.984 148.234C315.984 149.475 315.666 150.437 315.032 151.118C314.406 151.799 313.557 152.14 312.484 152.14C311.821 152.14 311.228 151.991 310.706 151.692C310.192 151.384 309.786 150.941 309.488 150.362C309.189 149.774 309.04 149.065 309.04 148.234C309.04 146.993 309.352 146.036 309.978 145.364C310.603 144.692 311.452 144.356 312.526 144.356C313.207 144.356 313.804 144.51 314.318 144.818C314.84 145.117 315.246 145.555 315.536 146.134C315.834 146.703 315.984 147.403 315.984 148.234ZM310.314 148.234C310.314 149.121 310.486 149.825 310.832 150.348C311.186 150.861 311.746 151.118 312.512 151.118C313.268 151.118 313.823 150.861 314.178 150.348C314.532 149.825 314.71 149.121 314.71 148.234C314.71 147.347 314.532 146.652 314.178 146.148C313.823 145.644 313.263 145.392 312.498 145.392C311.732 145.392 311.177 145.644 310.832 146.148C310.486 146.652 310.314 147.347 310.314 148.234ZM322.979 145.532H320.529V152H319.311V145.532H316.889V144.496H322.979V145.532ZM327.051 151.79L329.627 148.29L327.149 144.93L327.247 144.72H328.283L330.271 147.478L332.259 144.72H333.295L333.393 144.93L330.915 148.29L333.491 151.79L333.393 152H332.357L330.271 149.102L328.185 152H327.149L327.051 151.79Z" fill="#DCDCDC"/>
<path d="M325.543 160.5L335.129 160.5L330.336 165.293L325.543 160.5Z" fill="#27282E" stroke="#27282E"/>
<path d="M335.336 159.5L330.329 164.615L325.336 159.5H335.336Z" fill="#27282E"/>
<path d="M355.689 170.854C355.885 170.658 355.885 170.342 355.689 170.146L352.507 166.964C352.312 166.769 351.996 166.769 351.8 166.964C351.605 167.16 351.605 167.476 351.8 167.672L354.629 170.5L351.8 173.328C351.605 173.524 351.605 173.84 351.8 174.036C351.996 174.231 352.312 174.231 352.507 174.036L355.689 170.854ZM43.7198 485.68C-0.00634396 433.225 -15.9339 354.588 25.8822 289.082C67.7042 223.566 167.403 171 355.336 171V170C167.269 170 67.134 222.601 25.0393 288.543C-17.0612 354.495 -0.988804 433.608 42.9517 486.32L43.7198 485.68Z" fill="#5F5F5F"/>
<rect x="37.8358" y="368.5" width="75" height="26" rx="4.5" fill="#27282E" stroke="#27282E"/>
<path d="M51.8035 385.51V384.936H55.8355C56.4701 384.936 56.7875 384.619 56.7875 383.984V382.416C56.7875 381.781 56.4701 381.464 55.8355 381.464H52.8395V380.4H55.8355C56.4701 380.4 56.7875 380.083 56.7875 379.448V378.356C56.7875 377.721 56.4701 377.404 55.8355 377.404H51.9435V376.83L52.5735 376.34H55.8215C57.2495 376.34 57.9635 377.054 57.9635 378.482V379.504C57.9635 379.877 57.8468 380.181 57.6135 380.414L57.1235 380.904L57.6135 381.394C57.8468 381.627 57.9635 381.931 57.9635 382.304V383.858C57.9635 385.286 57.2495 386 55.8215 386H52.4335L51.8035 385.51ZM59.4212 380.68V377.74C59.4212 376.807 59.8879 376.34 60.8212 376.34H61.9412C62.8745 376.34 63.3412 376.807 63.3412 377.74V380.68C63.3412 381.613 62.8745 382.08 61.9412 382.08H60.8212C59.8879 382.08 59.4212 381.613 59.4212 380.68ZM60.3172 380.82C60.3172 381.119 60.4665 381.268 60.7652 381.268H61.9972C62.2959 381.268 62.4452 381.119 62.4452 380.82V377.6C62.4452 377.301 62.2959 377.152 61.9972 377.152H60.7652C60.4665 377.152 60.3172 377.301 60.3172 377.6V380.82ZM62.1512 385.58L66.7712 376.34L67.6112 376.76L62.9912 386L62.1512 385.58ZM66.4212 384.6V381.66C66.4212 380.727 66.8879 380.26 67.8212 380.26H68.9412C69.8745 380.26 70.3412 380.727 70.3412 381.66V384.6C70.3412 385.533 69.8745 386 68.9412 386H67.8212C66.8879 386 66.4212 385.533 66.4212 384.6ZM67.3172 384.74C67.3172 385.039 67.4665 385.188 67.7652 385.188H68.9972C69.2959 385.188 69.4452 385.039 69.4452 384.74V381.52C69.4452 381.221 69.2959 381.072 68.9972 381.072H67.7652C67.4665 381.072 67.3172 381.221 67.3172 381.52V384.74ZM81.9834 382.234C81.9834 383.475 81.6661 384.437 81.0314 385.118C80.4061 385.799 79.5567 386.14 78.4834 386.14C77.8207 386.14 77.2281 385.991 76.7054 385.692C76.1921 385.384 75.7861 384.941 75.4874 384.362C75.1887 383.774 75.0394 383.065 75.0394 382.234C75.0394 380.993 75.3521 380.036 75.9774 379.364C76.6027 378.692 77.4521 378.356 78.5254 378.356C79.2067 378.356 79.8041 378.51 80.3174 378.818C80.8401 379.117 81.2461 379.555 81.5354 380.134C81.8341 380.703 81.9834 381.403 81.9834 382.234ZM76.3134 382.234C76.3134 383.121 76.4861 383.825 76.8314 384.348C77.1861 384.861 77.7461 385.118 78.5114 385.118C79.2674 385.118 79.8227 384.861 80.1774 384.348C80.5321 383.825 80.7094 383.121 80.7094 382.234C80.7094 381.347 80.5321 380.652 80.1774 380.148C79.8227 379.644 79.2627 379.392 78.4974 379.392C77.7321 379.392 77.1767 379.644 76.8314 380.148C76.4861 380.652 76.3134 381.347 76.3134 382.234ZM88.9793 379.532H86.5293V386H85.3113V379.532H82.8893V378.496H88.9793V379.532ZM93.0507 385.79L95.6267 382.29L93.1487 378.93L93.2467 378.72H94.2827L96.2707 381.478L98.2587 378.72H99.2947L99.3927 378.93L96.9147 382.29L99.4907 385.79L99.3927 386H98.3567L96.2707 383.102L94.1847 386H93.1487L93.0507 385.79Z" fill="#DDDDDD"/>
<path d="M91.5429 394.5L101.129 394.5L96.3358 399.293L91.5429 394.5Z" fill="#27282E" stroke="#27282E"/>
<path d="M101.336 393.5L96.329 398.615L91.3358 393.5H101.336Z" fill="#27282E"/>
<path d="M486.482 37.6464C486.287 37.8417 486.287 38.1583 486.482 38.3536L489.664 41.5355C489.86 41.7308 490.176 41.7308 490.371 41.5355C490.567 41.3403 490.567 41.0237 490.371 40.8284L487.543 38L490.371 35.1716C490.567 34.9763 490.567 34.6597 490.371 34.4645C490.176 34.2692 489.86 34.2692 489.664 34.4645L486.482 37.6464ZM521.258 247.268C543.19 212.66 567.844 160.323 570.423 116.592C571.712 94.7179 567.482 74.9222 554.54 60.5945C541.593 46.2622 520.018 37.5 486.836 37.5V38.5C519.854 38.5 541.108 47.217 553.798 61.2649C566.492 75.3174 570.705 94.8029 569.424 116.533C566.861 160.01 542.315 212.173 520.414 246.732L521.258 247.268Z" fill="#5F5F5F"/>
</svg>
