<svg width="17" height="26" viewBox="0 0 17 26" fill="none" xmlns="http://www.w3.org/2000/svg">
<path d="M0.5 12.75C0.223858 12.75 0 12.9739 0 13.25C0 13.5261 0.223858 13.75 0.5 13.75V12.75ZM16.5 13.75C16.7761 13.75 17 13.5261 17 13.25C17 12.9739 16.7761 12.75 16.5 12.75V13.75ZM8 8.75C8 9.02614 8.22386 9.25 8.5 9.25C8.77614 9.25 9 9.02614 9 8.75H8ZM8.85355 0.896447C8.65829 0.701184 8.34171 0.701184 8.14645 0.896447L4.96447 4.07843C4.7692 4.27369 4.7692 4.59027 4.96447 4.78553C5.15973 4.9808 5.47631 4.9808 5.67157 4.78553L8.5 1.95711L11.3284 4.78553C11.5237 4.9808 11.8403 4.9808 12.0355 4.78553C12.2308 4.59027 12.2308 4.27369 12.0355 4.07843L8.85355 0.896447ZM9 17.25C9 16.9739 8.77614 16.75 8.5 16.75C8.22386 16.75 8 16.9739 8 17.25H9ZM8.14645 25.1036C8.34171 25.2988 8.65829 25.2988 8.85355 25.1036L12.0355 21.9216C12.2308 21.7263 12.2308 21.4097 12.0355 21.2145C11.8403 21.0192 11.5237 21.0192 11.3284 21.2145L8.5 24.0429L5.67157 21.2145C5.47631 21.0192 5.15973 21.0192 4.96447 21.2145C4.7692 21.4097 4.7692 21.7263 4.96447 21.9216L8.14645 25.1036ZM0.5 13.75H16.5V12.75H0.5V13.75ZM9 8.75V1.25H8V8.75H9ZM8 17.25V24.75H9V17.25H8Z" fill="#414141"/>
</svg>
