<svg width="24" height="19" viewBox="0 0 24 19" fill="none" xmlns="http://www.w3.org/2000/svg">
<path fill-rule="evenodd" clip-rule="evenodd" d="M24 2.24633C23.1724 2.60101 22.2266 2.83744 21.1626 2.95567C22.1084 2.36453 22.936 1.4187 23.2906 0.354665C22.3448 0.945798 21.2808 1.30048 20.2168 1.53693C19.3892 0.591119 18.0887 0 16.67 0C13.9507 0 11.8227 2.12808 11.8227 4.72906C11.8227 5.08374 11.8227 5.43845 11.9409 5.79313C7.92118 5.55668 4.37439 3.66504 1.89163 0.827601C1.41872 1.53696 1.18227 2.36455 1.18227 3.19213C1.18227 4.84731 2.00985 6.26598 3.31034 7.21179C2.48276 7.21179 1.7734 6.97534 1.06404 6.62066C1.06404 6.62066 1.06404 6.6207 1.06404 6.73893C1.06404 9.10346 2.71921 10.9951 4.96552 11.468C4.61084 11.5862 4.13793 11.5862 3.66503 11.5862C3.31035 11.5862 3.07389 11.5862 2.71921 11.468C3.31034 13.3596 5.08375 14.7783 7.21182 14.7783C5.55665 16.0788 3.42858 16.7882 1.18227 16.7882C0.82759 16.7882 0.354683 16.7882 3.60799e-06 16.6699C2.12808 18.0886 4.72906 18.7981 7.44827 18.7981C16.3153 18.7981 21.2808 11.468 21.2808 5.202C21.2808 4.96555 21.2808 4.72909 21.2808 4.61087C22.5813 4.01973 23.4089 3.19215 24 2.24633Z" fill="#328ED3"/>
</svg>
