<svg width="23" height="12" viewBox="0 0 23 12" fill="none" xmlns="http://www.w3.org/2000/svg">
<path fill-rule="evenodd" clip-rule="evenodd" d="M11.253 11.9498H12.6278C12.6278 11.9498 13.0431 11.9081 13.2551 11.699C13.4502 11.5071 13.444 11.1468 13.444 11.1468C13.444 11.1468 13.4171 9.45966 14.2733 9.21123C15.1173 8.9665 16.2011 10.8418 17.3498 11.5628C18.2185 12.1085 18.8785 11.9889 18.8785 11.9889L21.9501 11.9498C21.9501 11.9498 23.5568 11.8592 22.795 10.7039C22.7325 10.6093 22.3513 9.84917 20.5113 8.28715C18.5853 6.65231 18.8433 6.91674 21.1632 4.08883C22.5761 2.3666 23.1409 1.31517 22.9645 0.864837C22.7962 0.435923 21.7571 0.549291 21.7571 0.549291L18.2987 0.568995C18.2987 0.568995 18.0424 0.537012 17.8522 0.640956C17.6664 0.742902 17.5468 0.98049 17.5468 0.98049C17.5468 0.98049 16.9995 2.3132 16.2695 3.4466C14.7295 5.83817 14.1137 5.96439 13.8621 5.8159C13.2766 5.4698 13.4228 4.4255 13.4228 3.68361C13.4228 1.366 13.8071 0.399658 12.6743 0.149506C12.2984 0.0664077 12.0217 0.0115799 11.0603 0.00272747C9.82637 -0.00898055 8.78192 0.00615383 8.19054 0.271155C7.79711 0.447346 7.49361 0.839993 7.67846 0.862552C7.90702 0.890537 8.42472 0.990198 8.69918 1.33202C9.05357 1.77292 9.04108 2.76325 9.04108 2.76325C9.04108 2.76325 9.24466 5.4915 8.56554 5.83046C8.09936 6.06291 7.45989 5.58831 6.08697 3.41861C5.38349 2.30721 4.85237 1.07872 4.85237 1.07872C4.85237 1.07872 4.74996 0.849131 4.56729 0.726339C4.3456 0.577562 4.03586 0.530159 4.03586 0.530159L0.749524 0.549862C0.749524 0.549862 0.256184 0.562428 0.0750839 0.758608C-0.0860324 0.933086 0.0622819 1.29404 0.0622819 1.29404C0.0622819 1.29404 2.63515 6.79909 5.54835 9.57332C8.21957 12.1168 11.253 11.9498 11.253 11.9498Z" fill="#4D76A1"/>
</svg>
