<svg width="22" height="22" viewBox="0 0 22 22" fill="none" xmlns="http://www.w3.org/2000/svg">
<path d="M10 15C10 15.5523 10.4477 16 11 16C11.5523 16 12 15.5523 12 15H10ZM12 11C12 10.4477 11.5523 10 11 10C10.4477 10 10 10.4477 10 11H12ZM11 6C10.4477 6 10 6.44772 10 7C10 7.55228 10.4477 8 11 8V6ZM11.01 8C11.5623 8 12.01 7.55228 12.01 7C12.01 6.44772 11.5623 6 11.01 6V8ZM20 11C20 15.9706 15.9706 20 11 20V22C17.0751 22 22 17.0751 22 11H20ZM11 20C6.02944 20 2 15.9706 2 11H0C0 17.0751 4.92487 22 11 22V20ZM2 11C2 6.02944 6.02944 2 11 2V0C4.92487 0 0 4.92487 0 11H2ZM11 2C15.9706 2 20 6.02944 20 11H22C22 4.92487 17.0751 0 11 0V2ZM12 15V11H10V15H12ZM11 8H11.01V6H11V8Z" fill="white" fill-opacity="0.5"/>
</svg>
